<svg xmlns="http://www.w3.org/2000/svg" width="549.5657958984375" height="316.80230712890625" viewBox="-455.42864990234375 -20.827987670898438 549.5657958984375 316.80230712890625"><title>Neo4j Graph Visualization</title><desc>Created using Neo4j (http://www.neo4j.com/)</desc><g class="layer relationships"><g class="relationship" transform="translate(-181.3925758606423 252.92314075749812) rotate(359.76519272578867)"><path class="outline" fill="#A5ABB6" stroke="none" d="M 32.5 0.5 L 72.76582393516796 0.5 L 72.76582393516796 -0.5 L 32.5 -0.5 Z M 144.26582393516796 0.5 L 184.53164787033592 0.5 L 184.53164787033592 3.5 L 191.53164787033592 0 L 184.53164787033592 -3.5 L 184.53164787033592 -0.5 L 144.26582393516796 -0.5 Z"/><text text-anchor="middle" pointer-events="none" font-size="8px" fill="#000000" x="108.51582393516796" y="3" font-family="sans-serif">Associated_With</text></g><g class="relationship" transform="translate(-411.4286392269024 251.7171479812618) rotate(360.30037752403985)"><path class="outline" fill="#A5ABB6" stroke="none" d="M 40 0.5 L 75.56961155124633 0.5 L 75.56961155124633 -0.5 L 40 -0.5 Z M 154.96961307712525 0.5 L 190.53922462837156 0.5 L 190.53922462837156 3.5 L 197.53922462837156 0 L 190.53922462837156 -3.5 L 190.53922462837156 -0.5 L 154.96961307712525 -0.5 Z"/><text text-anchor="middle" pointer-events="none" font-size="8px" fill="#000000" x="115.26961231418578" y="3" font-family="sans-serif">mp_InterPro_PFAM</text></g><g class="relationship" transform="translate(-411.4286392269024 251.7171479812618) rotate(272.0289828150412)"><path class="outline" fill="#A5ABB6" stroke="none" d="M 40 0.5 L 41.29895809157196 0.5 L 41.29895809157196 -0.5 L 40 -0.5 Z M 82.74895885451141 0.5 L 84.04791694608338 0.5 L 84.04791694608338 3.5 L 91.04791694608338 0 L 84.04791694608338 -3.5 L 84.04791694608338 -0.5 L 82.74895885451141 -0.5 Z"/><text text-anchor="middle" pointer-events="none" font-size="8px" fill="#000000" x="62.02395847304169" y="3" font-family="sans-serif">mp_Int…</text></g><g class="relationship" transform="translate(-78.5245777357718 124.45864922532414) rotate(488.6860163701915)"><path class="outline" fill="#8DCC93" stroke="none" d="M 40 1 L 56.90419717181909 1 L 56.90419717181909 -1 L 40 -1 Z M 107.17086358417261 1 L 124.0750607559917 1 L 124.0750607559917 4 L 132.0750607559917 0 L 124.0750607559917 -4 L 124.0750607559917 -1 L 107.17086358417261 -1 Z"/><text text-anchor="middle" pointer-events="none" font-size="8px" fill="#000000" x="82.03753037799585" y="3" transform="rotate(180 82.03753037799585 0)" font-family="sans-serif">Belogns_To</text></g><g class="relationship" transform="translate(-78.5245777357718 124.45864922532414) rotate(404.74367658856545)"><path class="outline" fill="#8DCC93" stroke="none" d="M 40 1 L 61.43994239371541 1 L 61.43994239371541 -1 L 40 -1 Z M 111.70660880606893 1 L 133.14655119978434 1 L 133.14655119978434 4 L 141.14655119978434 0 L 133.14655119978434 -4 L 133.14655119978434 -1 L 111.70660880606893 -1 Z"/><text text-anchor="middle" pointer-events="none" font-size="8px" fill="#000000" x="86.57327559989217" y="3" font-family="sans-serif">Belogns_To</text></g><g class="relationship" transform="translate(-78.5245777357718 124.45864922532414) rotate(180.4104167896304)"><path class="outline" fill="#D9C8AE" stroke="none" d="M 40 0.5 L 53.357288103446365 0.5 L 53.357288103446365 -0.5 L 40 -0.5 Z M 140.85728810344636 0.5 L 154.21457620689273 0.5 L 154.21457620689273 3.5 L 161.21457620689273 0 L 154.21457620689273 -3.5 L 154.21457620689273 -0.5 L 140.85728810344636 -0.5 Z"/><text text-anchor="middle" pointer-events="none" font-size="8px" fill="#000000" x="97.10728810344636" y="3" transform="rotate(180 97.10728810344636 0)" font-family="sans-serif">RibosomalProtein_of</text></g><g class="relationship" transform="translate(-346.160106544199 15.672010961193408) rotate(418.2504586265155)"><path class="outline" fill="#D9C8AE" stroke="none" d="M 32.5 2.5 L 34.85950826188956 2.5 L 34.85950826188956 -2.5 L 32.5 -2.5 Z M 72.87617467424307 2.5 L 75.23568293613263 2.5 L 75.23568293613263 5.5 L 86.23568293613263 0 L 75.23568293613263 -5.5 L 75.23568293613263 -2.5 L 72.87617467424307 -2.5 Z"/><text text-anchor="middle" pointer-events="none" font-size="8px" fill="#000000" x="53.86784146806632" y="3" font-family="sans-serif">rRNA_of</text></g></g><g class="layer nodes"><g class="node" transform="translate(-181.3925758606423,252.92314075749812)"><circle class="outline" cx="0" cy="0" r="32.5" fill="#4C8EDA" stroke="#2870c2" stroke-width="2px"/><text text-anchor="middle" pointer-events="none" font-family="sans-serif" dy="2.03125" font-size="32.5" fill="#FFFFFF"/><text text-anchor="middle" pointer-events="none" y="5" font-size="10px" fill="#FFFFFF" font-family="sans-serif"> PFAMFamily</text></g><g class="node" transform="translate(-346.160106544199,15.672010961193408)"><circle class="outline" cx="0" cy="0" r="32.5" fill="#D9C8AE" stroke="#c0a378" stroke-width="2px"/><text text-anchor="middle" pointer-events="none" font-family="sans-serif" dy="2.03125" font-size="32.5" fill="#2A2C34"/><text text-anchor="middle" pointer-events="none" y="5" font-size="10px" fill="#2A2C34" font-family="sans-serif"> rRNA</text></g><g class="node" transform="translate(-411.4286392269024,251.7171479812618)"><circle class="outline" cx="0" cy="0" r="40" fill="#D9C8AE" stroke="#c0a378" stroke-width="2px"/><text text-anchor="middle" pointer-events="none" font-family="sans-serif" dy="2.5" font-size="40" fill="#2A2C34"/><text text-anchor="middle" pointer-events="none" y="5" font-size="10px" fill="#2A2C34" font-family="sans-serif"> InterProFamily</text></g><g class="node" transform="translate(50.13712773515681,251.974289665578)"><circle class="outline" cx="0" cy="0" r="40" fill="#C990C0" stroke="#b261a5" stroke-width="2px"/><text text-anchor="middle" pointer-events="none" font-family="sans-serif" dy="2.5" font-size="40" fill="#FFFFFF"/><text text-anchor="middle" pointer-events="none" y="5" font-size="10px" fill="#FFFFFF" font-family="sans-serif"> BanClass</text></g><g class="node" transform="translate(-279.73399176962096,123.01733653388146)"><circle class="outline" cx="0" cy="0" r="40" fill="#569480" stroke="#447666" stroke-width="2px"/><text text-anchor="middle" pointer-events="none" font-family="sans-serif" dy="2.5" font-size="40" fill="#FFFFFF"/><text text-anchor="middle" pointer-events="none" y="5" font-size="10px" fill="#FFFFFF" font-family="sans-serif"> RibosomeStr…</text></g><g class="node" transform="translate(-406.7888838461239,120.75139212915325)"><circle class="outline" cx="0" cy="0" r="40" fill="#D9C8AE" stroke="#c0a378" stroke-width="2px"/><text text-anchor="middle" pointer-events="none" font-family="sans-serif" dy="2.5" font-size="40" fill="#2A2C34"/><text text-anchor="middle" pointer-events="none" y="5" font-size="10px" fill="#2A2C34" font-family="sans-serif"> GOClass</text></g><g class="node" transform="translate(-78.5245777357718,124.45864922532414)"><circle class="outline" cx="0" cy="0" r="40" fill="#D9C8AE" stroke="#c0a378" stroke-width="2px"/><text text-anchor="middle" pointer-events="none" font-family="sans-serif" dy="2.5" font-size="40" fill="#2A2C34"/><text text-anchor="middle" pointer-events="none" y="5" font-size="10px" fill="#2A2C34" font-family="sans-serif"> RibosomalPro…</text></g></g></svg>