<svg height='100px' width='100px'  fill="#000000" xmlns="http://www.w3.org/2000/svg" xmlns:xlink="http://www.w3.org/1999/xlink" viewBox="0 0 24 24" version="1.1" x="0px" y="0px"><title>icon/vertical-align-middle</title><desc>Created with Sketch.</desc><g stroke="none" stroke-width="1" fill="none" fill-rule="evenodd"><path d="M12,7.29289322 L12,1.5 C12,1.22385763 12.2238576,1 12.5,1 C12.7761424,1 13,1.22385763 13,1.5 L13,7.29289322 L15.1464466,5.14644661 C15.3417088,4.95118446 15.6582912,4.95118446 15.8535534,5.14644661 C16.0488155,5.34170876 16.0488155,5.65829124 15.8535534,5.85355339 L12.8535534,8.85355339 C12.6582912,9.04881554 12.3417088,9.04881554 12.1464466,8.85355339 L9.14644661,5.85355339 C8.95118446,5.65829124 8.95118446,5.34170876 9.14644661,5.14644661 C9.34170876,4.95118446 9.65829124,4.95118446 9.85355339,5.14644661 L12,7.29289322 Z M13,15.7071068 L13,21.5 C13,21.7761424 12.7761424,22 12.5,22 C12.2238576,22 12,21.7761424 12,21.5 L12,15.7071068 L9.85355339,17.8535534 C9.65829124,18.0488155 9.34170876,18.0488155 9.14644661,17.8535534 C8.95118446,17.6582912 8.95118446,17.3417088 9.14644661,17.1464466 L12.1464466,14.1464466 C12.3417088,13.9511845 12.6582912,13.9511845 12.8535534,14.1464466 L15.8535534,17.1464466 C16.0488155,17.3417088 16.0488155,17.6582912 15.8535534,17.8535534 C15.6582912,18.0488155 15.3417088,18.0488155 15.1464466,17.8535534 L13,15.7071068 L13,15.7071068 Z M3.5,12 C3.22385763,12 3,11.7761424 3,11.5 C3,11.2238576 3.22385763,11 3.5,11 L20.5,11 C20.7761424,11 21,11.2238576 21,11.5 C21,11.7761424 20.7761424,12 20.5,12 L3.5,12 Z" fill="#000000" fill-rule="nonzero"></path></g></svg>