<?xml version="1.0" standalone="no"?>
<!DOCTYPE svg PUBLIC "-//W3C//DTD SVG 20010904//EN"
 "http://www.w3.org/TR/2001/REC-SVG-20010904/DTD/svg10.dtd">
<svg version="1.0" xmlns="http://www.w3.org/2000/svg"
 width="1200.000000pt" height="1200.000000pt" viewBox="0 0 1200.000000 1200.000000"
 preserveAspectRatio="xMidYMid meet">

<g transform="translate(0.000000,1200.000000) scale(0.100000,-0.100000)"
fill="#000000" stroke="none">
<path d="M9795 10883 c-448 -36 -842 -170 -1207 -412 -144 -95 -245 -176 -377
-305 -282 -275 -480 -591 -599 -956 -144 -440 -136 -925 22 -1338 52 -136 44
-225 -27 -291 -14 -12 -316 -191 -672 -396 l-646 -374 -582 331 c-320 182
-748 425 -952 541 -203 115 -649 369 -990 562 -341 194 -903 513 -1250 710
-346 197 -637 360 -646 362 -16 5 -1837 -484 -1852 -497 -4 -3 134 -87 305
-187 172 -99 1875 -1081 3783 -2183 1909 -1101 3483 -2014 3499 -2029 74 -68
83 -155 30 -293 -110 -289 -150 -637 -109 -953 110 -834 705 -1566 1542 -1893
594 -233 1232 -226 1788 20 400 176 746 504 940 887 390 775 209 1740 -455
2425 -209 216 -429 374 -728 524 -270 136 -514 230 -744 286 -59 15 -248 49
-420 76 -493 79 -775 128 -1015 175 l-222 44 -223 127 c-123 69 -233 132 -246
141 -23 14 -15 19 222 154 l244 139 123 26 c270 56 543 103 1144 199 499 80
753 161 1168 372 510 260 892 639 1127 1118 354 721 294 1505 -160 2110 -178
236 -453 455 -737 586 -313 144 -737 220 -1078 192z m310 -924 c272 -33 497
-135 671 -301 330 -317 395 -804 168 -1260 -83 -166 -175 -290 -316 -423 -498
-469 -1254 -572 -1756 -238 -206 137 -352 339 -413 573 -30 118 -37 314 -15
442 124 730 908 1299 1661 1207z m-3637 -3589 c233 -124 258 -443 47 -602 -63
-48 -131 -71 -209 -70 -78 0 -128 13 -196 54 -69 42 -125 115 -150 197 -24 76
-25 130 -4 202 33 111 103 190 212 236 49 20 70 23 147 20 80 -3 97 -7 153
-37z m3384 -1940 c828 -175 1396 -981 1181 -1675 -147 -476 -646 -771 -1210
-716 -374 36 -707 195 -979 466 -220 219 -349 458 -399 739 -23 128 -17 334
15 451 29 113 118 285 191 373 161 194 415 332 694 377 125 20 377 13 507 -15z"/>
<path d="M1987 4327 c-1088 -627 -1974 -1144 -1970 -1147 5 -4 421 -119 926
-255 861 -233 920 -247 946 -234 106 53 3460 1966 3458 1972 -2 6 -1186 696
-1368 797 -12 7 -520 -282 -1992 -1133z"/>
</g>
</svg>
