<svg xmlns="http://www.w3.org/2000/svg" xmlns:xlink="http://www.w3.org/1999/xlink" xml:space="preserve" version="1.1" style="shape-rendering:geometricPrecision;text-rendering:geometricPrecision;image-rendering:optimizeQuality;" viewBox="0 0 203 133.75" x="0px" y="0px" fill-rule="evenodd" clip-rule="evenodd"><defs><style type="text/css">
   
    .fil0 {fill:black}
   
  </style></defs><g><path class="fil0" d="M123 32c-5,-6 -13,-9 -22,-9 -8,0 -16,3 -22,9 -5,5 -9,13 -9,22 0,8 4,16 9,21 6,6 14,9 22,9 9,0 17,-3 22,-9 6,-5 9,-13 9,-21 0,-9 -3,-17 -9,-22z"/><path class="fil0" d="M203 54c0,0 -102,-121 -203,0 101,120 203,0 203,0zm-102 -41c12,0 22,4 29,12 8,7 12,17 12,29 0,11 -4,21 -12,29 -7,7 -17,11 -29,11 -11,0 -21,-4 -29,-11 -7,-8 -12,-18 -12,-29 0,-12 5,-22 12,-29 8,-8 18,-12 29,-12z"/></g><text x="0" y="122" fill="#000000" font-size="5px" font-weight="bold" font-family="'Helvetica Neue', Helvetica, Arial-Unicode, Arial, Sans-serif">Created by rinnduu</text><text x="0" y="127" fill="#000000" font-size="5px" font-weight="bold" font-family="'Helvetica Neue', Helvetica, Arial-Unicode, Arial, Sans-serif">from the Noun Project</text></svg>