<svg height='100px' width='100px'  fill="#000000" xmlns="http://www.w3.org/2000/svg" xmlns:xlink="http://www.w3.org/1999/xlink" version="1.1" x="0px" y="0px" viewBox="0 0 64 64" enable-background="new 0 0 64 64" xml:space="preserve"><g><path d="M60.885,30.498C60.885,30.498,48.653,16,32,16C15.348,16,3.115,30.498,3.115,30.498c-0.697,0.826-0.697,2.178,0,3.005   C3.115,33.502,15.348,48,32,48c16.652,0,28.884-14.498,28.884-14.498C61.582,32.676,61.582,31.324,60.885,30.498z M32,44.317   c-6.802,0-12.317-5.514-12.317-12.317S25.198,19.683,32,19.683S44.317,25.198,44.317,32S38.803,44.317,32,44.317z"></path><path d="M37.809,29.423c-1.447,0-2.621-1.173-2.621-2.621c0-0.378,0.081-0.738,0.225-1.062c-1.014-0.554-2.177-0.869-3.413-0.869   c-3.937,0-7.129,3.192-7.129,7.129S28.063,39.13,32,39.13s7.129-3.192,7.129-7.129c0-0.955-0.189-1.866-0.53-2.699   C38.35,29.38,38.084,29.423,37.809,29.423z"></path></g></svg>