<svg height='100px' width='100px'  fill="#000000" xmlns="http://www.w3.org/2000/svg" xmlns:xlink="http://www.w3.org/1999/xlink" version="1.1" x="0px" y="0px" viewBox="0 0 100 100" enable-background="new 0 0 100 100" xml:space="preserve"><g><g><g><path fill-rule="evenodd" clip-rule="evenodd" stroke="#000000" stroke-miterlimit="10" d="M48.565,61.74     c-1.481-7.412,0.429-13.725,5.83-19.002c-0.716-0.895-1.441-1.802-2.169-2.709c-1.372-1.71-2.75-3.418-4.114-5.138     c-0.17-0.214-0.307-0.293-0.6-0.206c-6.854,2.029-13.988-2.396-15.222-9.432c-1.149-6.555,3.24-12.812,9.773-13.932     c6.628-1.137,12.917,3.318,13.943,9.902c0.457,2.942-0.085,5.705-1.643,8.258c-0.041,0.068-0.083,0.139-0.146,0.244     c0.65,0.812,1.308,1.637,1.966,2.457c1.619,2.018,3.244,4.03,4.851,6.059c0.257,0.327,0.452,0.419,0.895,0.304     c7.791-2.035,14.522-0.188,20.022,5.713c2.729,2.926,4.252,6.48,4.752,10.466c1.246,9.892-5.242,19.261-14.953,21.313     c-7.388,1.561-13.713-0.548-18.858-6.097c-0.172-0.186-0.287-0.212-0.513-0.109c-4.658,2.092-9.318,4.18-13.984,6.257     c-0.297,0.133-0.389,0.31-0.395,0.608c-0.108,5.439-3.971,10.137-9.296,11.389c-6.56,1.54-13.259-2.782-14.499-9.393     c-1.237-6.6,2.843-12.779,9.443-14.102c4.062-0.814,7.661,0.293,10.702,3.133c0.186,0.174,0.321,0.259,0.588,0.138     c4.471-2.013,8.948-4.016,13.425-6.021C48.438,61.81,48.507,61.77,48.565,61.74z M52.561,27.641     c1.914-3.37,1.576-8.473-2.192-11.751c-3.6-3.13-8.975-3.062-12.665,0.176c-3.504,3.076-4.169,8.532-1.497,12.444     c1.333,1.952,3.145,3.26,5.43,3.883c1.476,0.405,2.967,0.458,4.532,0.106c-0.503-0.628-0.964-1.192-1.414-1.767     c-1.183-1.509-1.168-3.247,0.057-4.714c1.584-1.896,4.713-2.57,6.456,0.004C51.649,26.592,52.12,27.098,52.561,27.641z      M32.17,69.078c-3.209-2.871-8.295-3.037-11.844-0.424c-3.666,2.701-4.933,7.616-3.018,11.723     c1.935,4.154,6.471,6.365,10.925,5.293c4.616-1.109,7.057-5.162,7.229-8.243c-0.495,0.224-0.976,0.435-1.453,0.65     c-1.034,0.469-2.098,0.562-3.148,0.111c-1.499-0.641-2.334-1.861-2.708-3.392c-0.525-2.149,0.285-4.19,2.43-5.005     C31.111,69.594,31.616,69.331,32.17,69.078z M49.28,64.125c-0.032,0.009-0.072,0.019-0.108,0.035     c-5.93,2.652-11.858,5.309-17.79,7.958c-0.65,0.291-0.941,0.786-0.936,1.471c0.004,0.612,0.194,1.174,0.556,1.667     c0.584,0.793,1.181,0.944,2.084,0.542c5.585-2.5,11.169-5,16.752-7.504c0.439-0.195,0.878-0.394,1.277-0.573     C50.495,66.506,49.895,65.328,49.28,64.125z M59.001,39.621c-0.059-0.079-0.109-0.152-0.166-0.225     c-3.213-4-6.435-7.996-9.625-12.016c-0.483-0.608-1.015-0.774-1.803-0.352c-0.246,0.131-0.473,0.32-0.665,0.524     c-0.531,0.559-0.543,1.052-0.059,1.655c2.605,3.254,5.216,6.506,7.823,9.761c0.602,0.746,1.204,1.491,1.8,2.229     C57.217,40.665,58.1,40.148,59.001,39.621z" fill="#000000"></path></g></g></g></svg>