<svg height='100px' width='100px'  fill="#000000" xmlns="http://www.w3.org/2000/svg" xmlns:xlink="http://www.w3.org/1999/xlink" version="1.1" x="0px" y="0px" viewBox="0 0 100 100" style="enable-background:new 0 0 100 100;" xml:space="preserve"><g><path d="M87.5,47c-0.55,0-1,0.48-1,1.07V91.8c0,0.59-0.39,1.07-0.87,1.07H61.37c-0.48,0-0.87-0.48-0.87-1.07V74.73   C60.5,68.26,55.79,63,50,63s-10.5,5.26-10.5,11.73V91.8c0,0.59-0.4,1.07-0.9,1.07H14.38c-0.48,0-0.88-0.48-0.88-1.07V48.07   c0-0.59-0.45-1.07-1-1.07c-0.55,0-1,0.48-1,1.07V91.8c0,1.76,1.29,3.2,2.88,3.2H38.6c1.6,0,2.9-1.44,2.9-3.2V74.73   c0-5.29,3.81-9.6,8.5-9.6s8.5,4.31,8.5,9.6V91.8c0,1.76,1.29,3.2,2.87,3.2h24.27c1.58,0,2.87-1.44,2.87-3.2V48.07   C88.5,47.48,88.05,47,87.5,47z"></path><path d="M94.69,46.27L52.11,5.84c-1.18-1.12-3.04-1.12-4.23,0L5.31,46.27c-0.4,0.38-0.42,1.02-0.03,1.42   c0.39,0.4,1.03,0.41,1.44,0.03L49.3,7.29c0.4-0.37,1.01-0.37,1.41,0l42.57,40.43c0.4,0.38,1.05,0.37,1.44-0.03   C95.11,47.29,95.09,46.66,94.69,46.27z"></path></g></svg>