<svg xmlns="http://www.w3.org/2000/svg" xmlns:xlink="http://www.w3.org/1999/xlink" version="1.1" x="0px" y="0px" viewBox="-255 347 100 125" style="enable-background:new -255 347 100 100;" xml:space="preserve"><path d="M-180.8,406.3v-40l-17.1-16.7h-44.7v84.2h38.2c3.3,6.2,9.8,10.5,17.3,10.5c10.8,0,19.6-8.8,19.6-19.6  C-167.5,416.2-173.1,408.9-180.8,406.3z M-231.7,377.1h44.6v2.6h-44.6V377.1z M-231.7,383.8h33.1v2.6h-33.1V383.8z M-231.7,390.5  h30.1v2.6h-30.1V390.5z M-231.7,397.2h34.9v2.6h-34.9V397.2z M-233.8,406.3h-2.4v-2.4h2.4V406.3z M-233.8,399.7h-2.4v-2.4h2.4V399.7  z M-233.8,393h-2.4v-2.4h2.4V393z M-233.8,386.3h-2.4v-2.4h2.4V386.3z M-233.8,379.6h-2.4v-2.4h2.4V379.6z M-231.7,406.4v-2.6h35.8  v2.6H-231.7z M-187,441.4c-9.1,0-16.6-7.4-16.6-16.6s7.4-16.6,16.6-16.6s16.6,7.4,16.6,16.6S-177.9,441.4-187,441.4z M-175.1,421.7  l-10.9-10.9c-0.6-0.6-1.6-0.6-2.1,0l-10.9,10.9c-0.4,0.4-0.6,1.1-0.3,1.6s0.8,0.9,1.4,0.9h2.7v11.7c0,0.8,0.7,1.5,1.5,1.5h13.4  c0.8,0,1.5-0.7,1.5-1.5v-11.7h2.7c0.6,0,1.2-0.4,1.4-0.9S-174.7,422.1-175.1,421.7z M-181.8,434.4h-3.7v-5.9c0-0.8-0.7-1.5-1.5-1.5  s-1.5,0.7-1.5,1.5v5.9h-3.7v-10.2h10.4V434.4z M-194.3,421.2l7.3-7.3l7.3,7.3H-194.3z"/><text x="-255" y="462" fill="#000000" font-size="5px" font-weight="bold" font-family="'Helvetica Neue', Helvetica, Arial-Unicode, Arial, Sans-serif">Created by Raindrops</text><text x="-255" y="467" fill="#000000" font-size="5px" font-weight="bold" font-family="'Helvetica Neue', Helvetica, Arial-Unicode, Arial, Sans-serif">from the Noun Project</text></svg>