<svg xmlns="http://www.w3.org/2000/svg" xmlns:xlink="http://www.w3.org/1999/xlink" version="1.1" x="0px" y="0px" viewBox="0 0 100 125" enable-background="new 0 0 100 100" xml:space="preserve"><g><g><g><path d="M34.227,50.06c-0.549-4.301-1.234-8.294-1.355-12.023c-0.009-0.931-0.088-1.847-0.028-2.738     c0.052-0.89,0.107-1.759,0.163-2.615c0.041-0.854,0.244-1.667,0.357-2.479c0.158-0.8,0.199-1.599,0.45-2.334     c0.446-1.482,0.72-2.933,1.25-4.211c0.5-1.285,0.975-2.493,1.412-3.616c1.114-2.13,1.941-4.018,2.821-5.428     c1.746-2.836,2.669-4.349,2.669-4.349s-0.949,1.5-2.726,4.317c-0.896,1.403-1.748,3.279-2.894,5.401     c-0.454,1.124-0.943,2.324-1.469,3.61c-0.543,1.276-0.838,2.731-1.309,4.217c-0.256,0.737-0.312,1.542-0.478,2.345     c-0.125,0.813-0.346,1.633-0.395,2.495c-0.063,0.855-0.131,1.737-0.199,2.632c-0.063,0.904-0.001,1.826-0.005,2.765     c0.08,3.764,0.712,7.786,1.201,12.077c0.417,3.599,0.692,6.221,0.209,10.174c0.233-0.024,0.442,0.006,0.672-0.016     C34.993,56.298,34.677,53.636,34.227,50.06z"/></g><g><path d="M22.047,92.048c0.375,0.392,0.116,0.109,0.209,0.203l0.018,0.019c0.014,0.013,0.016,0.022,0.003,0.047     c0.045,0.057,0.111,0.24,0.07,0.357c0.054,0.111-0.044,0.29-0.048,0.32c-0.084,0.123,0.104-0.103,0.413-0.336     c-0.077-0.075-0.169-0.167-0.245-0.221L22.047,92.048z"/></g><g><path d="M55.131,64.243c0.894,0.06,0.435,0.121,1.341,0.161c-0.02-0.315-0.025-0.627-0.06-0.94     c-0.021-0.309-0.073-0.622-0.105-0.927c-0.813-0.032-0.26-0.075-1.063-0.122c-1.521-0.084-1.836-0.102-3.347-0.225     c-0.067,0.58-0.138,1.168-0.215,1.753C53.224,64.092,53.571,64.136,55.131,64.243z"/></g><g><path d="M87.162,44.918c-2.412,6.374-6.541,12.115-12.542,14.907c-4.103,1.999-7.188,2.616-11.763,2.703     c0.019,0.189,0.144,1.464,0.173,1.903c1.253-0.005,1.037-0.029,2.301-0.14c3.442-0.286,6.943-1.065,10.189-2.583     c3.246-1.5,6.174-3.796,8.44-6.601c0.539-0.718,1.118-1.419,1.624-2.155l1.432-2.289l1.26-2.423     c0.388-0.805,0.699-1.603,1.057-2.412c0.967-2.286,1.659-4.632,2.209-7.01c-0.796-0.218-1.581-0.417-2.354-0.616     C88.674,40.505,87.998,42.762,87.162,44.918z"/></g><g><path d="M33.374,67.521c0.205-0.641,0.341-1.307,0.465-1.969c0.108-0.564,0.36-1.602,0.36-1.602l-0.753-0.012     c0,0-0.215,0.933-0.328,1.499c-0.123,0.617-0.256,1.246-0.469,1.854c-0.378,1.181-0.755,2.376-1.144,3.582     c-0.913,2.322-2.326,4.492-4.12,6.361c-1.784,1.901-4.112,3.328-6.577,4.32c-0.64,0.206-1.233,0.494-1.909,0.644l-2.066,0.425     c-1.253,0.16-2.675,0.176-3.774-0.455c-1.099-0.613-1.697-1.84-1.648-3.159c0.046-1.321,0.526-2.651,1.209-3.88     c1.412-2.458,3.592-4.532,6.005-6.28c1.239-0.836,2.426-1.691,3.821-2.412c1.364-0.776,2.655-1.442,4.106-1.936     c2.217-0.777,4.579-1.203,6.998-1.402c0.234-0.019,0.474-0.026,0.709-0.042c0.464-0.031,0.93-0.065,1.397-0.083     c3.232-0.094,5.368,0.019,8.692,0.309c0.073-0.563,0.131-1.13,0.181-1.696c-3.372-0.253-5.58-0.333-8.936-0.188     c-0.379,0.014-0.759,0.054-1.141,0.078c-0.229,0.016-0.46,0.032-0.689,0.054c-2.627,0.228-5.239,0.696-7.706,1.604     c-1.512,0.527-2.988,1.315-4.299,2.087c-1.345,0.717-2.662,1.664-3.935,2.55c-2.481,1.855-4.752,4.05-6.277,6.759     c-0.723,1.368-1.275,2.866-1.306,4.48c-0.06,1.597,0.787,3.353,2.273,4.127c1.468,0.79,3.047,0.739,4.543,0.523l2.056-0.451     c0.682-0.161,1.362-0.479,2.037-0.711c2.632-1.095,5.028-2.615,6.879-4.63c1.863-1.992,3.309-4.277,4.227-6.719     C32.632,69.929,33.002,68.715,33.374,67.521z"/></g></g><g><path d="M57.021,83.82c2.217-2.915,3.65-6.438,4.246-10.02c0.539-3.134,0.525-6.27,0.288-9.352    c-0.029-0.445-0.059-0.885-0.096-1.325c-0.027-0.197-0.06-0.381-0.078-0.576c-0.719-6.793-2.285-13.364-2.874-19.968    c-0.298-3.389-0.321-6.787,0.25-10.052c0.562-3.272,1.771-6.381,3.655-9.098c1.898-2.689,4.329-5.073,7.187-6.94    c0.661-0.528,1.44-0.911,2.17-1.353c0.721-0.399,1.531-0.951,2.163-1.221c1.483-0.645,3.1-1.105,4.693-1.278    c3.207-0.398,6.34,0.506,8.294,3.089c0.324,0.34,0.527,0.664,0.706,0.975c0.182,0.328,0.413,0.587,0.58,0.97    c0.347,0.728,0.702,1.458,0.932,2.252c0.54,1.56,0.832,3.22,1.018,4.902c0.393,4.428,0.008,8.992-0.967,13.377    c0.773,0.198,1.559,0.397,2.354,0.616c0.26-1.122,0.492-2.244,0.694-3.378c0.599-3.551,0.828-7.189,0.521-10.866    c-0.17-1.83-0.468-3.678-1.066-5.491c-0.259-0.901-0.661-1.782-1.069-2.657c-0.18-0.441-0.513-0.876-0.77-1.313    c-0.273-0.458-0.558-0.874-0.847-1.176c-1.139-1.522-2.895-2.86-4.803-3.534c-1.919-0.7-3.954-0.831-5.881-0.64    c-1.94,0.188-3.783,0.689-5.566,1.44c-1.003,0.431-1.647,0.892-2.493,1.346c-0.795,0.471-1.616,0.865-2.353,1.427    c-3.106,1.988-5.887,4.598-8.084,7.648c-2.201,3.06-3.642,6.661-4.313,10.311c-0.687,3.666-0.691,7.351-0.429,10.915    c0.532,6.823,1.973,13.321,2.587,19.675c0.031,0.311,0.081,0.624,0.104,0.931c0.027,0.315,0.04,0.622,0.061,0.935    c0.206,2.996,0.188,5.944-0.331,8.734c-0.563,3.083-1.779,5.916-3.624,8.289c-1.797,2.411-4.352,4.265-6.937,5.788l-1.968,1.088    l-2.22,0.97l-1.117,0.481l-0.277,0.118c-0.122,0.051,0.006-0.002-0.054,0.022l-0.137,0.057l-0.551,0.201    c-0.726,0.271-1.469,0.528-2.208,0.77c-2.951,0.972-5.937,1.78-8.838,2.197c-1.444,0.207-2.891,0.33-4.187,0.219    c-0.186,0.001-0.347-0.033-0.517-0.059c-1.62-0.396-1.687-0.809-1.122-1.207c0.15-0.073,0.277-0.154,0.438-0.228    c0.766-0.371,1.646-0.705,2.508-1.023c1.313-0.456,2.827-0.942,4.229-1.569c0.707-0.293,1.412-0.593,2.115-0.888    c0.683-0.359,1.365-0.716,2.043-1.072c5.413-2.813,9.958-7.456,12.391-12.755c1.694-3.538,2.54-7.17,3.005-10.679    c0.085-0.591,0.155-1.175,0.214-1.758c0.117-1.129,0.203-2.237,0.271-3.329c0.236-5.017,0.027-9.67-0.08-13.982    c-0.313-8.606-0.104-15.936,1.484-21.458c1.466-5.556,4.278-9.121,6.258-11.167c0.53-0.497,0.877-0.942,1.372-1.34    c0.212-0.165,0.4-0.319,0.587-0.467l1.49,2.493l5.709-10.259L56.05,2.763l1.546,2.587c-0.331,0.273-0.743,0.611-1.227,1.016    c-0.495,0.4-1.114,1.079-1.775,1.738C54.266,8.455,53.887,8.8,53.553,9.2c-0.318,0.405-0.654,0.826-1.004,1.271    c-0.735,0.865-1.389,1.912-2.077,3.05c-1.351,2.287-2.632,5.104-3.441,8.353c-1.771,6.496-1.801,14.439-1.396,23.088    c0.174,4.333,0.431,8.884,0.26,13.573c-0.045,1.043-0.119,2.098-0.213,3.156c-0.053,0.565-0.116,1.131-0.184,1.694    c-0.392,3.104-1.096,6.193-2.436,9.073c-1.026,2.174-2.321,4.284-4.103,6.053l-0.636,0.696l-0.722,0.62    c-0.49,0.409-0.96,0.836-1.465,1.24c-1.097,0.704-2.097,1.55-3.321,2.138l-1.776,0.965l-1.89,0.814    c-1.262,0.587-2.54,1.017-4.027,1.552c-1.453,0.57-2.917,1.119-4.481,2.11c-0.753,0.526-1.668,1.021-2.438,2.566    c-0.175,0.363-0.275,0.944-0.315,1.417c0.027,0.481,0.133,1.053,0.313,1.463c0.092,0.179,0.196,0.36,0.31,0.534l0.168,0.26    c0.137,0.168-0.077-0.02,0.364,0.438l0.423,0.381c0.172,0.138,0.22,0.228,0.491,0.411c0.275,0.174,0.55,0.34,0.834,0.499    c0.61,0.367,1.065,0.475,1.54,0.624c0.493,0.177,0.95,0.249,1.407,0.316c0.468,0.077,0.928,0.141,1.364,0.143    c1.789,0.115,3.469-0.063,5.112-0.32c3.291-0.515,6.431-1.422,9.549-2.486c0.784-0.271,1.557-0.557,2.334-0.853l0.583-0.225    l0.368-0.156l0.275-0.122l1.104-0.492l2.224-1.006l2.313-1.29C51.949,88.932,54.831,86.787,57.021,83.82z"/></g></g><text x="0" y="115" fill="#000000" font-size="5px" font-weight="bold" font-family="'Helvetica Neue', Helvetica, Arial-Unicode, Arial, Sans-serif">Created by WARSLAB</text><text x="0" y="120" fill="#000000" font-size="5px" font-weight="bold" font-family="'Helvetica Neue', Helvetica, Arial-Unicode, Arial, Sans-serif">from the Noun Project</text></svg>