<svg height='100px' width='100px'  fill="#000000" xmlns="http://www.w3.org/2000/svg" data-name="Layer 1" viewBox="0 0 405.49194 75.23682" x="0px" y="0px"><defs><style>.cls-1{fill:none;}</style></defs><title>Protein-RAD</title><circle class="cls-1" cx="37.1875" cy="37.1875" r="29.6875"></circle><polygon class="cls-1" points="128.862 8.652 111.895 38.049 128.862 67.444 162.808 67.444 179.775 38.049 162.808 8.652 128.862 8.652"></polygon><polygon class="cls-1" points="331.021 67.737 395.249 67.737 363.135 12.112 331.021 67.737"></polygon><rect class="cls-1" x="224.7998" y="8.36182" width="59.375" height="59.375"></rect><path d="M451.731,281.59521l-38.6084-66.875a3.90035,3.90035,0,0,0-6.49414,0l-18.22174,31.5625H338.41553v-29.6875a3.751,3.751,0,0,0-3.75-3.75h-66.875a3.751,3.751,0,0,0-3.75,3.75v29.6875H233.01178l-18.05328-31.272a3.75151,3.75151,0,0,0-3.24707-1.875H173.43994a3.75151,3.75151,0,0,0-3.24707,1.875l-18.05328,31.272H120.96954a37.168,37.168,0,1,0-.17089,7.5h31.34094l18.05328,31.26954a3.75153,3.75153,0,0,0,3.24707,1.875h38.27149a3.75153,3.75153,0,0,0,3.24707-1.875l18.05328-31.26954h31.02875v29.6875a3.751,3.751,0,0,0,3.75,3.75h66.875a3.751,3.751,0,0,0,3.75-3.75v-29.6875h45.66131L368.02,281.59521a3.75,3.75,0,0,0,3.24707,5.625h77.2168a3.75,3.75,0,0,0,3.24707-5.625ZM83.92822,278.8584a29.6875,29.6875,0,1,1,29.6875-29.6875A29.7197,29.7197,0,0,1,83.92822,278.8584Zm125.62012.56885H175.603l-16.96778-29.39454,16.96778-29.397h33.94531l16.96777,29.397Zm121.36719.293h-59.375v-59.375h59.375Zm46.8457,0,32.11426-55.625,32.11426,55.625Z" transform="translate(-46.74072 -211.9834)"></path></svg>