<svg height='100px' width='100px'  fill="#000000" xmlns="http://www.w3.org/2000/svg" xmlns:xlink="http://www.w3.org/1999/xlink" version="1.1" x="0px" y="0px" viewBox="0 0 100 100" enable-background="new 0 0 100 100" xml:space="preserve"><g><path fill-rule="evenodd" clip-rule="evenodd" d="M30.359,14.359c-0.417,0-0.778,0.393-0.778,0.814v16.389   c0,5.725,2.614,9.625,6.37,12.432c3.505,2.61,8.012,4.322,12.519,6.005c-4.507,1.684-9.014,3.396-12.519,6.006   c-3.756,2.806-6.37,6.707-6.37,12.432v16.39c0,0.421,0.361,0.813,0.778,0.813c0.418,0,0.807-0.393,0.779-0.813v-4.21h37.695v4.21   c0,0.421,0.361,0.813,0.778,0.813s0.807-0.393,0.807-0.813V68.213c0,0,0,0,0-0.027c-0.167-5.865-2.865-9.907-6.704-12.77   c-3.061-2.301-6.844-3.929-10.738-5.416c3.895-1.487,7.678-3.115,10.738-5.416c3.839-2.863,6.537-6.904,6.704-12.769   c0-0.028,0-0.028,0-0.028V15.173c0-0.421-0.39-0.814-0.807-0.814s-0.778,0.393-0.778,0.814v4.209H31.139v-4.209   C31.166,14.752,30.777,14.359,30.359,14.359L30.359,14.359z M31.139,20.955h37.695v8.054H31.139V20.955L31.139,20.955z    M31.139,30.58h37.695v1.179c-0.056,2.75-0.696,4.967-1.781,6.875c0,0,0,0-0.027,0H33.002c-1.168-1.936-1.863-4.209-1.863-7.072   V30.58L31.139,30.58z M34.143,40.206h31.854c-0.891,1.15-1.976,2.189-3.228,3.115c-3.255,2.47-7.595,4.182-12.046,5.837   c-0.222-0.084-0.444-0.168-0.667-0.252c-4.868-1.796-9.681-3.592-13.158-6.174C35.84,41.946,34.922,41.132,34.143,40.206   L34.143,40.206z M50.723,50.842c4.451,1.656,8.791,3.368,12.046,5.837c1.252,0.927,2.337,1.965,3.228,3.115H34.143   c0.779-0.926,1.697-1.768,2.755-2.525c3.478-2.61,8.29-4.378,13.158-6.174C50.278,51.011,50.501,50.926,50.723,50.842   L50.723,50.842z M67.053,61.366c1.085,1.908,1.726,4.125,1.781,6.875v1.179H31.139v-0.982c0-2.862,0.695-5.136,1.863-7.071h34.023   C67.053,61.366,67.053,61.366,67.053,61.366L67.053,61.366z M31.139,70.991h37.695v8.055H31.139V70.991L31.139,70.991z"></path></g></svg>