<?xml version="1.0" standalone="no"?>
<!DOCTYPE svg PUBLIC "-//W3C//DTD SVG 20010904//EN"
 "http://www.w3.org/TR/2001/REC-SVG-20010904/DTD/svg10.dtd">
<svg version="1.0" xmlns="http://www.w3.org/2000/svg"
 width="1200.000000pt" height="1200.000000pt" viewBox="0 0 1200.000000 1200.000000"
 preserveAspectRatio="xMidYMid meet">

<g transform="translate(0.000000,1200.000000) scale(0.100000,-0.100000)"
fill="#000000" stroke="none">
<path d="M3475 11691 c-92 -24 -173 -91 -216 -176 l-24 -50 -3 -915 c-3 -919
1 -1073 34 -1330 44 -345 144 -728 279 -1070 46 -118 187 -411 256 -533 78
-139 286 -448 385 -572 301 -379 686 -735 1072 -990 39 -26 72 -51 72 -55 0
-4 -33 -29 -72 -55 -503 -333 -992 -829 -1315 -1333 -377 -590 -599 -1205
-689 -1917 -15 -111 -18 -275 -21 -1123 -5 -1107 -8 -1052 64 -1146 25 -33 60
-62 103 -85 60 -33 71 -36 150 -36 66 0 95 5 132 22 70 32 131 94 164 166 l29
62 6 1000 c6 1065 5 1045 58 1337 99 541 335 1089 668 1546 328 451 778 852
1276 1136 l118 67 67 -37 c229 -127 503 -319 702 -491 111 -96 460 -447 460
-463 0 -6 -325 -10 -870 -10 -834 0 -872 -1 -920 -19 -78 -30 -134 -81 -172
-158 -28 -58 -33 -77 -33 -143 0 -66 5 -85 33 -143 38 -77 94 -128 172 -158
48 -18 89 -19 1139 -19 l1088 0 75 -158 c85 -177 150 -342 202 -516 20 -64 36
-119 36 -121 0 -3 -746 -6 -1657 -7 l-1658 -3 -43 -23 c-66 -35 -119 -88 -149
-150 -24 -49 -28 -69 -28 -142 0 -73 4 -93 28 -142 30 -62 83 -115 149 -150
l43 -23 1721 -3 1722 -2 5 -28 c13 -65 28 -419 25 -587 l-3 -180 -1775 -5
-1775 -5 -48 -24 c-62 -30 -137 -114 -160 -177 -56 -159 15 -332 168 -405 l60
-29 1757 0 1756 0 4 -287 c5 -329 9 -348 85 -433 25 -28 69 -63 97 -78 44 -23
63 -27 141 -27 78 0 97 4 147 28 65 32 121 89 152 156 21 46 21 51 24 966 3
924 -1 1078 -34 1335 -44 345 -144 728 -279 1070 -46 118 -187 411 -256 533
-78 139 -286 448 -385 572 -300 378 -690 738 -1071 990 -40 26 -73 51 -73 55
0 3 57 45 128 93 412 279 823 678 1113 1077 501 690 782 1452 849 2304 6 74
10 514 10 1041 0 777 -2 919 -15 961 -22 74 -79 141 -155 183 -60 33 -71 36
-150 36 -66 0 -95 -5 -132 -22 -70 -32 -131 -94 -164 -166 l-29 -62 -6 -1000
c-6 -1093 -5 -1067 -70 -1390 -71 -355 -178 -659 -348 -990 -196 -381 -423
-687 -743 -1001 -264 -259 -516 -451 -840 -638 l-118 -68 -117 67 c-225 129
-463 298 -664 472 -105 91 -449 438 -449 453 0 6 325 10 870 10 834 0 872 1
920 19 78 30 134 81 172 158 28 58 33 77 33 143 0 66 -5 85 -33 143 -38 77
-94 128 -172 158 -48 18 -89 19 -1139 19 l-1088 0 -75 158 c-85 177 -150 342
-202 516 -20 64 -36 119 -36 121 0 3 748 6 1663 7 l1662 3 54 30 c227 126 227
444 0 570 l-54 30 -1726 3 -1727 2 -5 23 c-13 48 -28 422 -25 592 l3 180 1775
5 1775 5 45 24 c61 32 116 86 148 146 24 44 27 61 27 145 0 88 -2 99 -31 150
-18 32 -51 70 -79 91 -97 74 51 69 -1895 69 l-1748 0 -4 288 -3 287 -29 62
c-33 73 -95 135 -164 165 -50 23 -157 32 -207 19z"/>
</g>
</svg>
