<svg height='100px' width='100px'  fill="#000000" xmlns="http://www.w3.org/2000/svg" data-name="Layer 1" viewBox="0 0 100 100" x="0px" y="0px"><path d="M81.65,36.34a1.29,1.29,0,0,0,1.11-.65l5.76-10a1.29,1.29,0,0,0,.13-1,1.29,1.29,0,0,0-2.36-.31l-5.38,9.33h-10l-5-8.68,5.38-9.32a1.29,1.29,0,0,0,.17-.74,1.28,1.28,0,0,0-2.4-.55l-5.38,9.32H53a1.33,1.33,0,0,0-.65.11l-.39.26a2.71,2.71,0,0,0-.2.27l-5.38,9.32h-10l-5-8.68,5.38-9.32A1.29,1.29,0,0,0,36.9,15a1.28,1.28,0,0,0-2.4-.55l-5.38,9.32H18.34a1.31,1.31,0,0,0-.38.06,1.22,1.22,0,0,0-.28.13,1.37,1.37,0,0,0-.24.18,1.12,1.12,0,0,0-.14.18L11.48,34.41a1.27,1.27,0,0,0,0,1.28l5.77,10a1.16,1.16,0,0,0,.2.24,1.25,1.25,0,0,0,.3.23l.29.11a1.76,1.76,0,0,0,.31,0H29.9a1,1,0,0,0,.25,0l.14,0,.58-.41.11-.16,5.38-9.32h10l5,8.68-5,8.68H35.58l-.14,0-.15,0-.1,0a.74.74,0,0,0-.18.07l-.12.08-.28.25-.06.09-5.43,9.4H18.35a1.29,1.29,0,1,0,0,2.57H29.12l5,8.68-5.38,9.33a1.26,1.26,0,0,0-.13,1,1.28,1.28,0,0,0,2.36.31l5.38-9.32h10l5.39,9.32a1.28,1.28,0,0,0,1.11.65H64.38a1.3,1.3,0,0,0,1.12-.65l5.38-9.32H81.65a1.29,1.29,0,1,0,0-2.57H70.88l-5.41-9.37-.08-.11,0,0h0L65.22,64l-.17-.12-.14-.08-.1,0-.25-.06H53.62l-5-8.68,5-8.68h10L69,55.63l0,.07a1.65,1.65,0,0,0,.21.24,1.49,1.49,0,0,0,.25.18,1.17,1.17,0,0,0,.3.12.55.55,0,0,0,.2,0h.16a1.18,1.18,0,0,0,.31-.05,1,1,0,0,0,.21-.08l.13-.08A.58.58,0,0,0,71,56a1.28,1.28,0,0,0,.26-1.61L65.87,45l5-8.68ZM18,24.39ZM29.12,43.73h-10l-5-8.68,5-8.68h10l5,8.68ZM63.64,66.24l5,8.68-5,8.68h-10l-5-8.67,5-8.69ZM51.39,65l-5,8.69h-10l-5-8.69,5-8.68h10Zm18.91-9.2Zm-.18,0Zm-.4-.12ZM63.64,43.73h-10l-5-8.68,5-8.68h10l5,8.68Z"></path></svg>